<svg id="glasses" version="1.2" baseProfile="tiny-ps" xmlns="http://www.w3.org/2000/svg" viewBox="0 0 1024 166" width="255" height="50">
	<style>
		tspan {
			white-space: pre
		}

		.shp0 {
			fill: #000000
		}

		.shp1 {
			fill: #ffffff
		}
	</style>
	<g>
		<g>
			<path class="shp0" d="M66.06 0L66.06 33.03L99.1 33.03L132.13 33.03L165.16 33.03L198.19 33.03L231.23 33.03L264.26 33.03L264.26 66.06L297.29 66.06L297.29 99.1L330.32 99.1L330.32 132.13L363.35 132.13L363.35 165.16L396.39 165.16L429.42 165.16L462.45 165.16L495.48 165.16L528.52 165.16L561.55 165.16L561.55 132.13L594.58 132.13L594.58 99.1L627.61 99.1L627.61 66.06L660.65 66.06L693.68 66.06L693.68 99.1L726.71 99.1L726.71 132.13L759.74 132.13L792.77 132.13L825.81 132.13L858.84 132.13L891.87 132.13L924.9 132.13L957.94 132.13L957.94 99.1L990.97 99.1L990.97 66.06L1024 66.06L1024 33.03L1024 0L990.97 0L957.94 0L924.9 0L891.87 0L858.84 0L825.81 0L792.77 0L759.74 0L726.71 0L693.68 0L660.65 0L627.61 0L594.58 0L561.55 0L528.52 0L495.48 0L462.45 0L429.42 0L396.39 0L363.35 0L330.32 0L297.29 0L264.26 0L231.23 0L198.19 0L165.16 0L132.13 0L99.1 0L66.06 0ZM66.06 33.03L33.03 33.03L0 33.03L0 66.06L33.03 66.06L66.06 66.06L66.06 33.03Z" />
			<path class="shp1" d="M330.32 33.03L330.32 66.06L363.35 66.06L363.35 33.03L330.32 33.03ZM363.35 66.06L363.35 99.1L396.39 99.1L396.39 66.06L363.35 66.06ZM396.39 66.06L429.42 66.06L429.42 33.03L396.39 33.03L396.39 66.06ZM429.42 66.06L429.42 99.1L462.45 99.1L462.45 66.06L429.42 66.06ZM462.45 99.1L462.45 132.13L495.48 132.13L495.48 99.1L462.45 99.1ZM429.42 99.1L396.39 99.1L396.39 132.13L429.42 132.13L429.42 99.1Z" />
			<path class="shp1" d="M726.71 33.03L759.74 33.03L759.74 66.06L792.77 66.06L792.77 33.03L825.81 33.03L825.81 66.06L858.84 66.06L858.84 99.1L825.81 99.1L825.81 66.06L792.77 66.06L792.77 99.1L759.74 99.1L759.74 66.06L726.71 66.06L726.71 33.03L726.71 33.03Z" />
		</g>
	</g>
</svg>