<svg id="head" version="1.2" baseProfile="tiny-ps" xmlns="http://www.w3.org/2000/svg" viewBox="0 0 255 317" width="255" height="317">
	<path id="head-neck-right" d="M192.6 305.24C192.23 309.13 195.13 314.39 195.13 314.39" />
	<path id="head-neck-left" d="M47.4 224.44C47.4 224.44 59.5 296.3 44 308" />
	<path id="head-outline" d="M64.83 240.53C64.83 240.53 118.2 325.04 170 309.87C197.4 306.64 197.8 275.04 202.2 262.64C207.73 247.05 218.69 244.74 221 208C219.33 167.53 216 157.2 219.33 148.2C222.67 139.2 222.44 137.49 219 132C233.75 15.05 19.42 -29.38 18 141.1" />
	<path id="head-hide-head" d="M40 51L57 51L57 61L40 61L40 51ZM189 65L206 65L206 71L189 71L189 65Z" />
	<path id="head-hair" d="M30.2 58.24C30.2 58.24 99 40.64 69 133.36C59.4 139.04 73.85 183.5 54.6 177.84C47.67 176.37 42 125.03 10.33 147.03C7.83 106.43 -20.25 84.4 30.2 58.24ZM26 56C37.67 34.37 61.5 7.7 126.83 0.37C179.67 -0.6 211 26 211 26C211 26 241.7 55.22 206 67C179.2 75.84 168.4 55.76 135 57C101.6 58.24 102.8 52.56 70 63C66 60.7 60.67 49.97 26 56ZM214 68C214 68 229.5 95.13 221 107C216.5 87.53 203 71 203 71" />
	<path id="head-hide-glasses" d="M44.5 169.5C37.86 169.5 10 167.14 10 159.95C10 152.76 22.36 144 29 144C35.64 144 43.5 152.45 43 161C42.5 169.55 51.14 169.5 44.5 169.5Z" />
	<path id="head-ear" d="M35 152C34.88 146.9 2.13 135.9 12 177C35.13 228.65 47 217 47 217C47 217 54.88 215.6 54 205" />
</svg>